<svg width="1000" height="630" xmlns="http://www.w3.org/2000/svg" xmlns:xlink="http://www.w3.org/1999/xlink" xml:space="preserve" overflow="hidden"><g transform="translate(248 -186)"><path d="M0 0-2.70899 1.22952-6.02598 0.081067C-6.02598 0.081067-6.31647 3.24944-9.99151 5.41123-9.99151 5.41123-12.0114 6.64074-14.6799 5.41123L-15.6865 4.54651-17.3483 7.3163 96.9224 124.945 112.568 118.878 0 0ZM-38.6893-25.7388-46.188-33.0889-48.4984-29.7719-49.7279-29.1774-48.9307-24.7727-47.2959-22.6718-42.5872-24.9687-42.04-24.3539-38.6893-25.7388ZM-33.2915-41.378-57.3482-66.9546-54.119-55.8282-54.119-46.9851-51.8154-40.7362-50.471-33.2915-50.2278-33.0416-50.4102-32.9538-46.3366-34.9669C-46.3366-34.9669-47.0054-38.9054-43.1614-40.9254-39.3175-42.9453-36.818-39.6756-36.818-39.6756L-33.2915-41.378ZM-210.315-198.682-81.8575-65.7724-84.9853-76.1152-84.9853-84.4786-77.3582-88.2347-191.886-210.024-210.315-198.682ZM66.225 140.469 65.4819 137.132-50.9574 23.1717-53.4637 24.3066-53.4637 20.7126-16.7674 3.32375-21.6719-1.65512-24.6309-0.425602-25.7861-1.93885-26.0023-3.52642-27.9479-2.44552-32.1228-2.64143-31.2378 1.85779-114.595 40.6957-124.499 31.5148-126.424 15.8959-73.6359-9.82938-73.6359-14.6799-73.6359-17.5645-83.8301-12.6127-84.4043-16.1256-73.6359-21.449-84.4043-16.1256-246.545-176.382-249.031-174.855-249.031-178.834-212.781-201.229-194.338-212.625-155.77-236.452 2.70223-58.7128 3.66153-55.3485-34.0279-36.8923-28.2586-30.4474C-27.5831-26.5022-30.8528-24.7727-30.8528-24.7727L-29.3193-22.8542C-28.8328-21.7935-30.2785-20.5437-30.2785-20.5437L-35.325-16.8079-34.798-16.2202-33.9671-11.9912-28.4545-11.9912-21.6044-15.2811-20.4492-13.9841-19.9425-11.5318C-19.9425-11.5318-17.274-12.687-15.4027-10.7414L-6.74883-1.5065 32.7578-19.1791 145.313 106.178 146.481 109.393 66.225 140.469Z" stroke="#000000" stroke-width="2.25186" fill="#FFFFFF" transform="matrix(1 0 0 -1 573.547 545.232)"/><path d="M0 0 0.337779 0 5.47878 3.79664 5.47878 11.5385 0.864715 13.7476-4.70864 9.95098-4.70864 8.12697-6.49212 9.03898-12.1128 5.12074-12.1128 0.29049-4.75593-3.50615 0 0Z" stroke="#000000" stroke-width="2.25186" fill="#FFFFFF" transform="matrix(1 0 0 -1 139.23 448.963)"/><path d="M0 0-0.344535 3.2697 1.43894 13.9165C1.87805 13.3896 2.51983 12.8424 3.46562 12.3087 7.37035 10.0928 9.74831 13.1734 9.74831 13.1734L12.8356 11.6601 0 0ZM-152.94-138.915-169.072-129.011-21.7125 1.7497-24.3809-6.72857-23.6108-15.3825-25.2186-22.9082-152.94-138.915ZM-122.04 114.176-122.04 123.661C-122.04 124.391-122.29 125.093-122.742 125.742L-108.339 125.539-108.211 130.667-105.103 131.308-105.171 128.984-107.448 128.349-108.339 107.752-122.04 114.176ZM-194.264 70.8594-194.264 63.7187-202.127 67.7856C-202.006 68.0423-201.897 68.3125-201.796 68.5827-201.161 68.7719-200.54 69.0624-199.945 69.4812L-193.331 74.1966C-193.933 73.1495-194.264 72.0281-194.264 70.8594M-246.761 185.272C-246.484 184.333-245.849 183.657-245.849 183.657L-245.795 183.259-247.227 182.266-247.336 182.306-247.241 184.934-246.761 185.272ZM-243.566 184.799-243.465 185.171-243.221 185.042-243.566 184.799ZM-234.453 171.47-229.622 171.619C-229.69 171.416-229.731 171.241-229.764 171.065L-236.371 167.809-239.128 169.099-239.134 169.173-234.736 171.565C-234.581 171.491-234.453 171.47-234.453 171.47M-33.4334 193.966C-30.1637 196.425-29.5489 199.999-30.4745 203.593-30.4204 203.62-30.3934 203.634-30.3934 203.634-28.7315 205.073-28.2248 207.451-28.2248 207.451L-23.6108 208.106-20.0776 211.132-18.9224 211.639-19.1386 210.626-6.09354 190.433-4.31682 191.649-6.78937 189.305-19.3818 181.901-26.8535 174.436-47.9106 183.151-33.4334 193.966ZM-11.4034 142.293-23.4216 135.274-25.7253 133.126-25.6577 136.686-22.361 139.793-10.4441 147.103-7.12039 150.136-4.43167 148.967-11.4034 142.293ZM-95.9091 130.052-95.6456 128.133C-95.6456 128.133-94.8484 127.485-93.3352 126.789L-96.2536 125.607-102.617 128.653-95.9091 130.052ZM-76.3719 169.538-76.6016 164.593C-77.6758 165.046-78.8647 165.417-80.1415 165.688-78.4999 166.525-77.1758 167.883-76.3719 169.538M-81.2562 114.278-76.8718 117.203-66.1102 127.39-64.9888 128.12-59.1519 128.43-66.779 123.837-76.9732 114.318-81.3846 112.251-81.2562 114.278ZM-22.6515 156.872-29.5354 150.346-35.4128 150.136-30.0556 153.541-25.3672 158.047-22.6515 156.872ZM-64.428 175.895-62.5567 176.963-64.1848 175.848-64.1848 175.172-40.8173 165.302-42.1684 164.499-52.2612 154.696-61.6245 149.211-64.2794 149.116-64.4956 147.535-65.7251 146.812-69.0489 143.577-73.5751 143.428-72.859 151.501-71.7376 154.838-70.6972 157.919C-70.6972 158.804-70.9404 159.655-71.3931 160.452L-60.4355 155.656-59.3749 156.426-58.5101 171.234-66.4277 174.483-64.428 175.895ZM-45.6272 118.642-55.6255 108.934-68.4138 101.239-77.419 93.2406-79.797 94.3553-77.1623 95.9496-67.745 104.894-54.9567 112.967-44.5734 122.871-33.1902 129.829-29.0288 130.052-33.224 126.14-45.6272 118.642ZM-18.8076 35.2371-18.8076 35.6627-18.7738 35.2169-18.8076 35.2371ZM9.95098 26.9683 10.0388 26.921 2.83059 20.5775 2.57388 20.6991 3.2089 24.516 4.8978 26.9683 8.11346 25.4821 9.95098 26.9683ZM-312.953 176.76-312.953 174.983-317.134 172.531-320.931 174.341-321.275 182.826-311.676 178.077-312.953 176.76ZM-329.159 219.489-328.862 215.361-326.606 214.355-328.578 213.132-335.192 216.186-329.159 219.489ZM-199.357 290.612-189.19 286.626-291.544 229.913-292.429 230.311-296.705 227.859-296.705 227.055-297.597 226.562-297.766 232.568-301.563 234.446-301.569 234.608-199.357 290.612ZM-369.375 204.789-368.916 204.573-369.051 204.498-369.375 204.789ZM-395.492 183.056-395.972 179.489-539.461 100.287-549.81 106.657-397.931 189.156-395.492 183.056ZM-604.902 140.307-614.522 146.204-436.918 235.094-435.006 234.155C-434.047 229.399-430.297 229.785-430.297 229.785L-427.798 230.838-427.068 230.474-604.902 140.307ZM-421.643 233.77-421.643 232.622-417.799 230.865-416.522 231.305-416.664 235.716-414.624 237.472-413.084 236.317-412.402 226.555-424.717 232.379-421.643 233.77ZM-262.346 315.344-253.078 311.71-389.824 242.012-399.174 246.383-262.346 315.344ZM30.8393 55.9295 152.305 163.472 166.498 157.966 46.0663 49.1334 42.5805 50.6939 40.9254 49.7549C40.9254 49.7549 40.851 53.1462 36.9598 55.0918 36.9598 55.0918 35.0818 55.8147 33.7847 55.0918L32.2714 54.1258 30.8393 55.9295ZM46.0934-0.574225 12.6329 16.058 18.3076 21.1517C19.4628 22.9825 17.7267 24.9484 17.7267 24.9484L20.0371 27.3061C20.6113 28.1708 19.4628 29.2787 19.4628 29.2787L15.9027 31.8796 15.9027 33.8455 17.4429 36.4396 17.5037 37.4462 21.8881 37.0679 28.0897 34.3995 29.3125 35.406 29.3125 38.6487 40.5606 47.9512 41.2091 47.9512 76.2841 32.1566 196.615 146.292 197.398 149.548 123.918 177.821 123.539 174.625 0.445869 70.5486-2.08072 71.7241-2.08072 68.4138 31.1162 52.7814 25.7793 48.4578 25.0632 48.5997 23.8337 47.4512 23.5432 45.9312 21.4557 47.0121 18.0442 46.6 18.3076 50.9574-13.4234 66.0494-20.0573 66.5358-21.7868 67.7856-35.5141 74.0075-34.6427 74.7776-31.2581 74.7776C-31.2581 74.7776-28.6572 73.5481-30.2448 75.7842L-30.8257 78.3851-28.9477 77.7298-27.8668 78.8174-27.8668 79.5335C-27.8668 79.5335-24.1174 77.8041-21.3071 80.763-18.49 83.7152-19.4291 88.3361-20.6586 89.9912-21.8813 91.6463-24.0431 90.3492-24.0431 90.3492L-23.827 93.7405-24.9822 94.3891-24.8403 96.1928-24.1918 96.767-23.9756 103.401-25.5564 103.982-27.144 102.611-30.6096 102.32-35.4398 98.2803-35.5074 95.0376-38.6825 92.5853C-38.6825 92.5853-43.8032 94.3148-42.5737 89.6331L-43.6546 88.836-45.2422 88.4779-45.4584 78.5269-45.4651 78.5269-62.9148 86.4445-56.8753 90.3763-46.6879 100.185-34.2846 107.684-24.8606 116.912-12.8424 124.215-4.47895 132.484-2.74952 148.238 6.95825 144.022 20.9018 155.365-0.641781 164.235 0.324268 174.308-7.47844 167.052-11.1805 168.572-8.42422 170.268 0.905249 179.118 2.72926 198.344-1.3849 194.433-14.2408 214.375-14.2408 214.956C-11.8561 214.666-9.98476 216.179-9.98476 216.179-6.59345 218.847-7.74866 223.319-9.98476 226.704-12.2209 230.095-16.4769 230.237-18.2063 229.805-19.9357 229.372-21.3071 226.704-21.3071 226.704L-21.6652 226.704-35.0075 247.619-40.1214 244.154-26.5697 222.887-26.5697 222.38-31.4 219.03-33.4942 214.807C-35.2844 215.301-36.4802 215.071-37.176 214.787L-47.1675 222.57-48.3362 223.151C-48.3362 223.151-47.2621 225.556-50.0521 226.704-50.0521 226.704-52.0586 226.805-52.2545 226.035-52.2545 226.035-56.2065 225.934-54.4703 221.995-52.7409 219.016-49.8562 221.61-49.8562 221.61L-42.9385 216.564C-44.3369 216.794-45.661 216.598-46.7824 215.848L-66.5898 202.553C-69.1029 200.864-70.2649 198.317-70.427 195.5L-75.0478 192.142C-75.0343 192.244-75.0276 192.311-75.0276 192.311L-74.4466 193.25-74.4466 193.541-73.8926 193.919-74.4466 194.156-74.4466 197.648-75.7436 198.222C-75.9598 199.722-77.9798 202.249-78.7634 202.864-79.4592 203.492-80.8171 203.917-82.3776 203.917-83.2221 203.917-83.999 203.796-84.6475 203.586L-84.4719 205.505-86.8498 205.505-87.2079 202.195-90.0317 200.681-109.468 208.822-108.893 209.403-138.314 221.61-153.406 212.092-123.796 199.405-123.026 199.884-90.1668 185.799-90.1668 184.887C-89.6737 183.083-88.2415 181.496-87.5659 180.827-89.5386 179.888-91.0856 178.219-91.8625 176.159L-92.1057 176.321-91.5855 185.171-107.306 191.899-108.697 191.325-109.177 176.902-105.461 175.226-129.937 157.959-129.599 171.741-132.842 159.776-132.842 155.912-134.213 154.946-133.754 173.646-136.997 161.675-136.997 146.11C-137.415 145.948-137.814 145.745-138.199 145.515L-140.949 145.428-138.692 154.669-138.192 175.22-141.435 163.249-141.435 145.414-146.481 145.252-146.481 146.522-148.792 147.772C-149.657 150.366-152.44 150.271-152.44 150.271L-154.561 150.082-162.445 153.831-171.578 155.27-173.112 152.487-179.84 151.136-179.84 149.407-176.956 147.677-176.956 144.022-174.841 142.969-174.841 138.956-213.112 156.905-218.935 159.635-213.781 163.445-200.803 170.369-190.129 178.253-177.442 184.401-167.539 192.095-155.811 198.344-155.331 215.551-167.343 209.687-177.631 202.093-190.231 196.034-200.803 188.15-213.882 181.712-224.806 173.632C-224.238 175.382-225.441 176.591-225.441 176.591L-225.508 176.591-224.934 176.902-213.882 185.265-200.708 191.71-190.035 199.783-177.348 206.518-167.248 214.017-155.331 219.975-154.845 237.952-167.343 231.804-177.442 223.921-190.231 217.766-201.094 209.788-214.071 203.249-225.13 195.169-238.587 188.251-241.512 186.225C-241.519 186.285-241.519 186.326-241.519 186.326L-242.384 186.758-242.384 187.988-240.681 189.623-238.972 190.845-225.029 198.344-214.071 206.802-200.708 213.727-190.129 221.995-177.348 228.339-166.964 236.317-154.845 242.762-154.845 260.84-167.059 254.686-177.442 246.701-190.42 240.262-201.377 231.899-214.747 225.171-226.089 216.706-239.742 209.788-251.47 201.418-258.678 199.979-264.738 202.769-268.102 201.904-267.265 182.286-279.161 187.866-279.067 188.535-285.599 191.615-286.133 191.852-286.133 195.318-281.613 198.054-277.189 195.939-273.054 198.486-273.297 205.316-275.506 206.322-273.392 207.572-273.73 214.355-276.033 215.409-273.919 216.658-273.959 218.151-168.241 278.398-167.897 281.073-219.671 301.34-219.671 298.59-356.087 225.826-358.62 226.995-358.62 224.11-333.99 212.571-338.671 212.571-348.19 208.153-347.467 194.865-359.053 200.459-353.669 203.343C-353.425 204.174-353.337 204.924-353.365 205.6L-352.513 206.039-352.513 221.225-372.672 230.649-372.645 231.332-233.595 304.055-233.23 306.528-281.465 325.565-281.634 322.917-418.434 255.402-421.211 256.706-421.211 252.895-405.018 245.309-414.624 240.553-416.813 241.992-421.211 242.35-423.184 242.086-434.141 236.419-436.256 238.053-456.252 247.761-456.252 244.586-633.438 157.824-636.484 159.695-636.484 156.331-617.569 144.678-607.949 138.76-588.337 126.681-407.22 220.55-407.22 222.921-401.262 220.063-401.262 208.957-570.435 119.351-573.651 121.337-573.651 117.642-552.992 104.928-542.622 98.5438-520.883 85.1609-394.384 156.811-394.533 154.791-380.684 147.583-379.245 157.77-381.961 163.85-339.732 187.772-361.998 198.249-383.893 186.157-383.765 194.784-384.474 196.466-372.118 203.181-386.467 210.295-369.152 201.708C-369.051 197.864-364.727 197.574-364.727 197.574L-362.613 198.533-339.732 187.772-339.732 190.291-336.57 188.758-337.131 178.733-333.868 170.369-335.401 159.79-332.328 151.041-333.767 140.847-330.787 132.68-332.037 122.202-317.229 114.318-315.695 124.891-318.675 132.869-317.182 142.854-316.655 142.583-312.858 144.793-306.467 141.617-302.231 144.07-302.231 147.63-301.799 148.015-299.685 146.718-301.563 145.468-301.272 139.023-297.57 137.294-297.381 132.774-295.699 131.862-293.341 133.349-286.707 129.984-282.667 132.531-282.91 139.118-283.681 139.314-280.749 141.232-274.257 137.821-270.169 140.564-270.413 147.002-272.237 147.819-270.602 148.974-270.892 155.514-272.716 156.378-270.359 157.919-266.136 155.878-265.508 141.232-246.086 131.91-244.741 134.504-244.741 143.448-242.782 144.61-235.797 141.232-235.155 140.922-235.534 140.536C-236.331 137.868-233.878 136.503-233.878 136.503L-232.365 136.503C-233.804 133.835-231.352 132.896-231.352 132.896L-228.683 132.822-227.744 131.883-226.38 131.815-225.299 131.092-219.813 125.323-221.401 125.249C-221.982 122.222-219.597 121.283-219.597 121.283L-216.138 121.141C-215.692 120.837-215.253 120.621-214.834 120.466L-223.157 115.034-224.117 115.325-226.278 114.318-226.393 111.798-225.515 111.285-223.833 112.197-215.996 108.258-215.996 105.374-210.18 102.3-208.498 103.259-208.396 104.462-205.958 103.144-217.293 95.3281C-218.016 94.8282-218.577 94.1932-218.982 93.45-219.982 93.3825-220.935 93.0852-221.806 92.5043L-236.871 82.4249C-237.324 84.2151-238.243 85.6136-239.736 86.3702L-266.528 99.9692C-271.453 102.503-278.411 96.436-282.33 89.14L-286.802 91.626-292.233 87.8294-292.233 83.0194-285.315 79.2836C-285.41 75.9868-284.295 73.163-281.424 71.6092L-255.341 57.8143C-254.659 57.4563-253.963 57.2131-253.274 57.078L-254.834 52.9773-258.442 50.4305C-258.543 50.3562-258.638 50.2548-258.725 50.1467-259.529 49.1131-259.388 46.5528-256.949 43.5533-254.26 40.2363-250.511 41.3915-250.511 41.3915L-245.849 44.7085-242.667 47.5526C-239.114 45.1138-235.317 44.2356-232.271 46.2825L-230.872 47.2148C-230.291 46.2285-229.487 45.4111-228.413 44.8368L-172.571 14.9434C-170.747 13.9638-168.741 14.1597-166.741 15.1528L-165.039 14.4029-170.349 10.3158-170.349 5.2626-179.509-1.72943-179.509-7.35008-174.679-10.0185-171.862-7.85675-171.862-10.4509-167.181-12.9032-165.302-11.4642-165.228-13.9841-160.398-16.5107-157.946-14.2746-158.094-14.8555-159.533-16.7268-159.608-18.2401-154.629-21.0504-146.083-13.9165-146.083-10.7414-145.326-9.87667-142.3-11.5385-127.951 0.29049-127.877 1.37138-127.228 1.37138-121.824 5.84358-121.824 11.6129-126.512 14.1327-126.512 16.585-132.855 19.0372-132.855 20.1181-138.767 23.0028-138.767 23.5838-143.597 26.3198-151.96 19.6858-155.926 21.4152-157.919 19.8885-159.459 20.5505-159.459 22.2191C-154.068 30.1907-151.271 41.7225-157.392 44.6612L-157.48 44.7085-163.066 47.5931C-161.749 49.0388-160.999 50.7007-160.999 52.4706L-160.999 70.8594C-160.999 76.4327-168.444 80.9522-177.631 80.9522-180.496 80.9522-183.191 80.5131-185.549 79.7362L-161.985 96.5238C-160.965 97.2534-160.182 98.0911-159.608 99.0031-159.236 99.0099-158.878 99.0437-158.52 99.1112-158.27 96.9292-157.419 95.1862-155.784 94.3958L-144.921 89.1467C-145.009 87.9105-145.09 86.7147-145.137 85.7622-145.326 82.1074-142.59 76.4327-142.084 75.9531-142.084 75.9531-143.86 72.4739-143.205 68.3463-142.996 67.0762-142.482 66.0494-141.786 65.2387-143.259 63.8403-144.178 61.8677-144.178 59.6789-144.178 57.1185-142.921 54.8621-141.003 53.4637-142.124 52.241-143.056 50.4237-143.205 47.6877L-144.178 35.379-146.123 32.3052C-146.123 32.3052-146.481 25.8604-136.483 25.8604-128.505 26.5359-128.795 31.15-128.795 31.15L-130.329 34.9939-130.423 48.5524C-130.423 48.5524-130.714 51.2411-132.112 53.3556-130.106 54.7405-128.795 57.0577-128.795 59.6789-128.795 61.8677-129.714 63.8403-131.18 65.2387-130.45 66.0291-129.876 66.9411-129.599 67.8801-128.795 70.5689-129.18 72.9739-130.14 74.8992-130.14 74.8992-129.349 75.8112-128.457 77.2299L-124.924 77.2299-123.431 78.8039-123.445 78.8107C-120.148 77.6082-117.142 79.5808-114.973 82.8235L-109.528 80.2091-110.143 66.0494-110.143 65.4752-87.2619 54.1325-84.9515 56.247-84.2016 68.049-43.3438 48.4376-44.5261 47.5931-44.5261 41.3915-49.1401 43.5533-53.1732 40.3849-53.6799 33.5347-52.0721 32.6903-54.0379 31.15-54.423 24.4214-53.0787 23.6513-54.7135 22.2124-54.9499 16.5107-201.58-109.049-204.208-107.441-204.208-111.298-171.727-131.369-155.601-141.334-121.472-162.418 44.8436-4.03984 46.0934-0.574225Z" stroke="#000000" stroke-width="2.25186" fill="#FFFFFF" transform="matrix(1 0 0 -1 420.456 545.877)"/></g></svg>